<?xml version="1.0" standalone="no"?><!DOCTYPE svg PUBLIC "-//W3C//DTD SVG 1.1//EN" "http://www.w3.org/Graphics/SVG/1.1/DTD/svg11.dtd"><svg t="1727190986740" class="icon" viewBox="0 0 1024 1024" version="1.1" xmlns="http://www.w3.org/2000/svg" p-id="2145" xmlns:xlink="http://www.w3.org/1999/xlink" width="200" height="200"><path d="M200.2 823h-27.3c-3.8 0-7.3 2.7-7.8 6.5-0.6 4.5 3 8.5 7.4 8.5h27.7c4.1 0 7.5-3.4 7.5-7.5s-3.4-7.5-7.5-7.5zM780.2 823H674.5c-4.1 0-7.5 3.4-7.5 7.5s3.4 7.5 7.5 7.5h105.7c4.1 0 7.5-3.4 7.5-7.5s-3.4-7.5-7.5-7.5zM797.7 830.5c0 4.1 3.4 7.5 7.5 7.5h47c4.1 0 7.5-3.4 7.5-7.5s-3.4-7.5-7.5-7.5h-47c-4.2 0-7.5 3.4-7.5 7.5zM649.5 823H225.2c-4.1 0-7.5 3.4-7.5 7.5s3.4 7.5 7.5 7.5h424.3c4.1 0 7.5-3.4 7.5-7.5s-3.4-7.5-7.5-7.5zM599.8 885H330.7c-4.4 0-8 3.6-8 8s3.6 8 8 8H600c4.8 0 8.7-4.3 7.9-9.3-0.6-3.9-4.2-6.7-8.1-6.7zM304.7 885h-54.4c-4 0-7.5 2.8-8.1 6.7-0.8 5 3.1 9.3 7.9 9.3h54.7c4.4 0 8-3.6 8-8-0.1-4.4-3.7-8-8.1-8z" fill="#76B767" p-id="2146"></path><path d="M216.7 214.7h-8.5v-8.5c0-1.8-1.5-3.3-3.3-3.3s-3.3 1.5-3.3 3.3v8.5h-8.5c-1.8 0-3.3 1.5-3.3 3.3s1.5 3.3 3.3 3.3h8.5v8.5c0 1.8 1.5 3.3 3.3 3.3s3.3-1.5 3.3-3.3v-8.5h8.5c1.8 0 3.3-1.5 3.3-3.3s-1.5-3.3-3.3-3.3z" fill="#F4AD9F" p-id="2147"></path><path d="M897.7 321.7h-8.5v-8.5c0-1.8-1.5-3.3-3.3-3.3s-3.3 1.5-3.3 3.3v8.5h-8.5c-1.8 0-3.3 1.5-3.3 3.3s1.5 3.3 3.3 3.3h8.5v8.5c0 1.8 1.5 3.3 3.3 3.3s3.3-1.5 3.3-3.3v-8.5h8.5c1.8 0 3.3-1.5 3.3-3.3s-1.5-3.3-3.3-3.3z" fill="#76B767" p-id="2148"></path><path d="M839.2 737.2c-0.7 0-1.3-0.6-1.3-1.3v-9.6c0-0.7 0.6-1.3 1.3-1.3 0.7 0 1.3 0.6 1.3 1.3v9.6c0 0.7-0.6 1.3-1.3 1.3zM835.6 738.3c-0.6 0.4-1.4 0.1-1.8-0.5l-4.8-8.3c-0.4-0.6-0.1-1.4 0.5-1.8 0.6-0.4 1.4-0.1 1.8 0.5l4.8 8.3c0.3 0.7 0.1 1.5-0.5 1.8zM833 741.1c-0.4 0.6-1.2 0.8-1.8 0.5l-8.3-4.8c-0.6-0.4-0.8-1.2-0.5-1.8 0.4-0.6 1.2-0.8 1.8-0.5l8.3 4.8c0.7 0.4 0.9 1.2 0.5 1.8zM832.2 744.8c0 0.7-0.6 1.3-1.3 1.3h-9.6c-0.7 0-1.3-0.6-1.3-1.3 0-0.7 0.6-1.3 1.3-1.3h9.6c0.7 0 1.3 0.6 1.3 1.3zM833.3 748.4c0.4 0.6 0.1 1.4-0.5 1.8l-8.3 4.8c-0.6 0.4-1.4 0.1-1.8-0.5-0.4-0.6-0.1-1.4 0.5-1.8l8.3-4.8c0.7-0.3 1.5-0.1 1.8 0.5zM836.1 751c0.6 0.4 0.8 1.2 0.5 1.8l-4.8 8.3c-0.4 0.6-1.2 0.8-1.8 0.5-0.6-0.4-0.8-1.2-0.5-1.8l4.8-8.3c0.4-0.7 1.2-0.9 1.8-0.5zM839.8 751.8c0.7 0 1.3 0.6 1.3 1.3v9.6c0 0.7-0.6 1.3-1.3 1.3-0.7 0-1.3-0.6-1.3-1.3v-9.6c0-0.7 0.6-1.3 1.3-1.3zM843.4 750.7c0.6-0.4 1.4-0.1 1.8 0.5l4.8 8.3c0.4 0.6 0.1 1.4-0.5 1.8-0.6 0.4-1.4 0.1-1.8-0.5l-4.8-8.3c-0.3-0.7-0.1-1.5 0.5-1.8zM846 747.9c0.4-0.6 1.2-0.8 1.8-0.5l8.3 4.8c0.6 0.4 0.8 1.2 0.5 1.8-0.4 0.6-1.2 0.8-1.8 0.5l-8.3-4.8c-0.7-0.4-0.9-1.2-0.5-1.8zM846.8 744.2c0-0.7 0.6-1.3 1.3-1.3h9.6c0.7 0 1.3 0.6 1.3 1.3 0 0.7-0.6 1.3-1.3 1.3h-9.6c-0.7 0-1.3-0.6-1.3-1.3zM845.7 740.6c-0.4-0.6-0.1-1.4 0.5-1.8l8.3-4.8c0.6-0.4 1.4-0.1 1.8 0.5 0.4 0.6 0.1 1.4-0.5 1.8l-8.3 4.8c-0.7 0.3-1.5 0.1-1.8-0.5zM842.9 738c-0.6-0.4-0.8-1.2-0.5-1.8l4.8-8.3c0.4-0.6 1.2-0.8 1.8-0.5 0.6 0.4 0.8 1.2 0.5 1.8l-4.8 8.3c-0.4 0.7-1.2 0.9-1.8 0.5z" fill="#F4D676" p-id="2149"></path><path d="M779.2 159.2c-0.7 0-1.3-0.6-1.3-1.3v-9.6c0-0.7 0.6-1.3 1.3-1.3 0.7 0 1.3 0.6 1.3 1.3v9.6c0 0.7-0.6 1.3-1.3 1.3zM775.6 160.3c-0.6 0.4-1.4 0.1-1.8-0.5l-4.8-8.3c-0.4-0.6-0.1-1.4 0.5-1.8 0.6-0.4 1.4-0.1 1.8 0.5l4.8 8.3c0.3 0.7 0.1 1.5-0.5 1.8zM773 163.1c-0.4 0.6-1.2 0.8-1.8 0.5l-8.3-4.8c-0.6-0.4-0.8-1.2-0.5-1.8 0.4-0.6 1.2-0.8 1.8-0.5l8.3 4.8c0.7 0.4 0.9 1.2 0.5 1.8zM772.2 166.8c0 0.7-0.6 1.3-1.3 1.3h-9.6c-0.7 0-1.3-0.6-1.3-1.3 0-0.7 0.6-1.3 1.3-1.3h9.6c0.7 0 1.3 0.6 1.3 1.3zM773.3 170.4c0.4 0.6 0.1 1.4-0.5 1.8l-8.3 4.8c-0.6 0.4-1.4 0.1-1.8-0.5-0.4-0.6-0.1-1.4 0.5-1.8l8.3-4.8c0.7-0.3 1.5-0.1 1.8 0.5zM776.1 173c0.6 0.4 0.8 1.2 0.5 1.8l-4.8 8.3c-0.4 0.6-1.2 0.8-1.8 0.5-0.6-0.4-0.8-1.2-0.5-1.8l4.8-8.3c0.4-0.7 1.2-0.9 1.8-0.5zM779.8 173.8c0.7 0 1.3 0.6 1.3 1.3v9.6c0 0.7-0.6 1.3-1.3 1.3-0.7 0-1.3-0.6-1.3-1.3v-9.6c0-0.7 0.6-1.3 1.3-1.3zM783.4 172.7c0.6-0.4 1.4-0.1 1.8 0.5l4.8 8.3c0.4 0.6 0.1 1.4-0.5 1.8-0.6 0.4-1.4 0.1-1.8-0.5l-4.8-8.3c-0.3-0.7-0.1-1.5 0.5-1.8zM786 169.9c0.4-0.6 1.2-0.8 1.8-0.5l8.3 4.8c0.6 0.4 0.8 1.2 0.5 1.8-0.4 0.6-1.2 0.8-1.8 0.5l-8.3-4.8c-0.7-0.4-0.9-1.2-0.5-1.8zM786.8 166.2c0-0.7 0.6-1.3 1.3-1.3h9.6c0.7 0 1.3 0.6 1.3 1.3 0 0.7-0.6 1.3-1.3 1.3h-9.6c-0.7 0-1.3-0.6-1.3-1.3zM785.7 162.6c-0.4-0.6-0.1-1.4 0.5-1.8l8.3-4.8c0.6-0.4 1.4-0.1 1.8 0.5 0.4 0.6 0.1 1.4-0.5 1.8l-8.3 4.8c-0.7 0.3-1.5 0.1-1.8-0.5zM782.9 160c-0.6-0.4-0.8-1.2-0.5-1.8l4.8-8.3c0.4-0.6 1.2-0.8 1.8-0.5 0.6 0.4 0.8 1.2 0.5 1.8l-4.8 8.3c-0.4 0.7-1.2 0.9-1.8 0.5z" fill="#F4AD9F" p-id="2150"></path><path d="M219.2 758.7l2.9 5.8c0.2 0.4 0.5 0.6 1 0.7l6.4 0.9c1.1 0.2 1.5 1.4 0.7 2.2l-4.7 4.5c-0.3 0.3-0.4 0.7-0.4 1.1l1.1 6.4c0.2 1-0.9 1.8-1.9 1.4l-5.7-3c-0.4-0.2-0.8-0.2-1.2 0l-5.7 3c-0.9 0.5-2-0.3-1.9-1.4l1.1-6.4c0.1-0.4-0.1-0.8-0.4-1.1l-4.7-4.5c-0.8-0.7-0.3-2 0.7-2.2l6.4-0.9c0.4-0.1 0.8-0.3 1-0.7l2.9-5.8c0.5-0.9 1.9-0.9 2.4 0z" fill="#F4AD9F" p-id="2151"></path><path d="M716.2 92.7l2.9 5.8c0.2 0.4 0.5 0.6 1 0.7l6.4 0.9c1.1 0.2 1.5 1.4 0.7 2.2l-4.7 4.5c-0.3 0.3-0.4 0.7-0.4 1.1l1.1 6.4c0.2 1-0.9 1.8-1.9 1.4l-5.7-3c-0.4-0.2-0.8-0.2-1.2 0l-5.7 3c-0.9 0.5-2-0.3-1.9-1.4l1.1-6.4c0.1-0.4-0.1-0.8-0.4-1.1l-4.7-4.5c-0.8-0.7-0.3-2 0.7-2.2l6.4-0.9c0.4-0.1 0.8-0.3 1-0.7l2.9-5.8c0.5-0.9 1.9-0.9 2.4 0zM278.4 570.6c1.8-0.1 3.7-0.3 5.5-0.4 0.5-0.1 1-0.2 1.4-0.3 0.5-0.1 1.2-0.4 1.9-0.7 0.2-0.2 0.6-0.5 1.1-0.6 0.3-1.1 0.9-2.2 1-3 0.3-1.4 0.6-4.6 0.5-3.7 1.3-15.6 3-31.1 11.9-44.5 6.9-10.4 15-19.1 25.3-26.3 35.1-24.3 79.3-7.9 114.4 7.1 8.8 3.7 17.5 7.7 26.2 11.5 2.1 0.9 10.2 4.2 1.9 0.9 2 0.8 4 1.7 6.1 2.5 4.1 1.7 8.2 3.2 12.4 4.7 7.8 2.7 15.6 4.8 23.7 6.3 0.5 0.1 1.1 0.1 1.6 0.2 1.8 0.1 3.6 0.2 5.4 0.2 1.6 0 3.3-0.1 4.9-0.2 0.3 0 0.6-0.1 0.9-0.2 1.8-0.4 3.6-0.9 5.3-1.4 0.2-0.1 0.5-0.2 0.7-0.3 1.6-0.8 3.1-1.7 4.6-2.6l0.9-0.6c1.4-1.3 2.8-2.5 4.1-3.9 0.7-0.7 1.3-1.4 1.9-2.2 2.5-3.8 5-7.5 7-11.6 1.7-3.3 3.2-6.6 4.7-10 0.4-0.8 2.5-5.9 1-2.2s0.6-1.4 0.9-2.2c2.6-6.4 5.1-12.9 7.7-19.3 5.5-13.4 11-27 19.1-39.1 9-13.5 20.3-25 34.2-33.4 16.9-10.2 36.4-15.1 55.9-17.1 20.8-2.1 42 0.8 62.2 7.2C708.6 263.9 590 184.8 467 207.9c-114.2 21.4-187.6 113.7-202.5 236-4.6 37.3-4.6 82.8 0.9 127.8 4.3-0.4 8.7-0.8 13-1.1z" fill="#F4D676" p-id="2152"></path><path d="M735.1 433.2c-0.6-0.2-1.3-0.5-1.9-0.7-1.8-0.7-3.7-1.4-5.6-2-4-1.4-8.1-2.6-12.2-3.7-4.4-1.1-8.8-2.1-13.2-2.9-0.5-0.1-1.1-0.2-1.7-0.3h-0.7c-2.2-0.2-4.5-0.4-6.7-0.6-4.5-0.3-9-0.3-13.5-0.1-2 0.1-3.9 0.2-5.9 0.4h-0.2c-0.6 0.1-1.7 0.2-2.2 0.3-2.1 0.3-24.7 5-24.4 6.8 0-0.1 5.2-2.3 0.8-0.3-0.8 0.4-1.7 0.8-2.5 1.2-1.4 0.7-2.8 1.5-4.2 2.3-1.5 0.9-3 1.8-4.5 2.8-0.3 0.2-1.2 0.8-1.8 1.3-0.9 0.8-2.2 1.8-2.6 2.2-1.2 1.1-2.4 2.2-3.5 3.4-1 1-2 2.1-2.9 3.1-0.3 0.3-1.2 1.5-1.9 2.3-0.6 0.9-1.3 1.8-1.6 2.2-0.8 1.2-1.6 2.3-2.3 3.5-1.6 2.6-3.1 5.2-4.5 7.9-1.5 2.9-3 5.9-4.4 8.8-0.7 1.5-1.4 3-2 4.6-0.1 0.3-0.3 0.6-0.4 0.9-9.7 24.3-17.9 51-36.1 70.4-14 14.9-33.8 22.7-54.2 22.5-18.4-0.2-36.3-5.8-53.2-12.5-10.2-4.1-20.2-8.5-30.2-12.9-4.2-1.9-8.5-3.7-12.7-5.6-0.9-0.4-1.7-0.7-2.6-1.1-2-0.8-3.9-1.6-5.9-2.4-8.1-3.2-16.4-6.2-24.9-8.4-3.7-1-7.4-1.7-11.1-2.4-0.7-0.1-1.4-0.1-2.1-0.2-1.7-0.1-3.5-0.2-5.2-0.2-1.4 0-2.8 0.1-4.2 0.1-0.7 0.2-1.7 0.2-2.5 0.3-1.7 0.4-3.4 0.8-5.1 1.3-0.5 0.2-1 0.3-1.5 0.5-1.9 1-3.8 2.1-5.6 3.3-0.7 0.5-3 2.1-4.1 3.2-1.6 1.6-3.1 3.2-4.6 4.9-0.5 0.7-1 1.4-1.5 2.2-0.6 0.9-1.3 1.9-1.9 2.9-0.3 0.5-1.1 2.2-1.6 3-0.3 1-0.7 2.1-0.8 2.5-0.3 1.4-0.6 2.8-0.8 4.2 0 0.4-0.1 0.8-0.1 1.3-0.2 1.6-0.3 3.2-0.4 4.8-0.8 8.4-1.3 17.2-4.4 25.1-4.1 10.4-10.8 19.7-20.8 25-11.3 6.1-24.6 7.3-37.6 8.1 19.1 90 62.7 165.7 138.7 151.5 112.5-21 303.7-205.8 324.8-334.1-0.6-0.3-1-0.5-1.3-0.7zM587.2 245.7c11.2-8.6 38.6-38.9 41.2-77.8 1.4-1.9 1.1-4.4-1-7.2-3.2-4.2-10.3-8.2-18.4-10.5-8.1-2.3-16.2-2.6-21.1-0.7-4.7 1.8-5.8 5.2-3.2 9.1 2.1 12.1 4.4 43.4-20.2 70.5-7.8 8.7 11.5 25.2 22.7 16.6z" fill="#F4AD9F" p-id="2153"></path><path d="M588.7 248.9s98.7 109.2 178.6 31.3c12.4-12 26.1-0.6 26.1-0.6S742.3 138 588.6 233c0 0-3.6 4.4-3.8 6.1-0.3 2.7 3.9 9.8 3.9 9.8z" fill="#76B767" p-id="2154"></path></svg>